 http://img833.imageshack.us/img833/3369/frontieres2007.jpg

Country.......: France, Switzerland
Genre.........: Horror, Thriller, Drama, Crime
Date release..: 01.07.2007 [World]
Director......: Xavier Gens
Writers.......: Xavier Gens
Duration......: 104 min.
More..........: http://www.imdb.com/title/tt0814685
Trailer.......: http://www.imdb.com/video/imdb/vi669057305
Trailer.......:

Pilot :
Cruel, dark horror. The extreme right candidate wins the second round of presidential elections in France. A group of young robber sneaks into the secret headquarters, located on the secluded old mining. Too late to discover that it is inhabited by neo-Nazis, cannibals.

Cats :
Karina Testa 	... 	Yasmine
Samuel Le Bihan 	... 	Goetz
Estelle Lefebure 	... 	Gilberte
Aurelien Wiik 	... 	Alex
David Saracino 	... 	Tom
Chems Dahmani 	... 	Farid
Maud Forget 	... 	Eva
Amelie Daure 	... 	Klaudia
Rosine Favey 	... 	La mere
Adel Bencherif 	... 	Sami
Joel Lefrancois 	... 	Hans
Patrick Ligardes 	... 	Karl
Jean Pierre Jorris 	... 	Von Geisler
Stephane Jacquot 	... 	Policeman
Christine Culerier 	... 	Nurse 

Data Technical :
!!! SAMPLE !!!
Audio.....: Lector Polish
Subtitles.: None
Format                           : AVI
Format/Info                      : Audio Video Interleave
File size                        : 300 MiB
Duration                         : 1h 43mn
Overall bit rate                 : 404 Kbps
Writing application              : VirtualDubMod 1.5.10.2 (build 2542/release)
Writing library                  : VirtualDubMod build 2542/release
Video
ID                               : 0
Format                           : MPEG-4 Visual
Format profile                   : Advanced Simple@L5
Format settings, BVOP            : Yes
Format settings, QPel            : No
Format settings, GMC             : No warppoints
Format settings, Matrix          : Default (H.263)
Muxing mode                      : Packed bitstream
Codec ID                         : XVID
Codec ID/Hint                    : XviD
Duration                         : 1h 43mn
Bit rate                         : 264 Kbps
Width                            : 640 pixels
Height                           : 352 pixels
Display aspect ratio             : 16:9
Frame rate                       : 25.000 fps
Color space                      : YUV
Chroma subsampling               : 4:2:0
Bit depth                        : 8 bits
Scan type                        : Progressive
Bits/(Pixel*Frame)               : 0.047
Stream size                      : 196 MiB (65%)
Writing library                  : XviD 1.2.1 
Audio
ID                               : 1
Format                           : MPEG Audio
Format version                   : Version 1
Format profile                   : Layer 3
Mode                             : Joint stereo
Mode extension                   : MS Stereo
Codec ID                         : 55
Codec ID/Hint                    : MP3
Duration                         : 1h 43mn
Bit rate mode                    : Variable
Bit rate                         : 128 Kbps
Channel(s)                       : 2 channels
Sampling rate                    : 48.0 KHz
Video delay                      : 216ms
Stream size                      : 94.2 MiB (31%)
Alignment                        : Split accross interleaves
Interleave, duration             : 24 ms (0.60 video frame)
Interleave, preload duration     : 508 ms
Writing library                  : LAME3.90.
Encoding settings                : -m j -V 4 -q 2 -lowpass 17.6 abr 128

Screen : 
http://img62.imageshack.us/img62/9286/frontieres2007s4.jpg 
http://img585.imageshack.us/img585/1475/frontieres2007s1.jpg 
http://img854.imageshack.us/img854/4451/frontieres2007s2.jpg 
http://img685.imageshack.us/img685/6924/frontieres2007s3.jpg